<?xml version="1.0" encoding="iso-8859-1"?>
<!-- Uploaded to: SVG Repo, www.svgrepo.com, Generator: SVG Repo Mixer Tools -->
<svg height="800px" width="800px" version="1.1" id="Layer_1" xmlns="http://www.w3.org/2000/svg" xmlns:xlink="http://www.w3.org/1999/xlink" 
	 viewBox="0 0 512 512" xml:space="preserve">
<path style="fill:#FFD782;" d="M332.795,384H179.206c-5.716,0-9.815-5.51-8.174-10.986l18.656-62.186
	c2.165-7.219,8.81-12.162,16.347-12.162h99.931c7.537,0,14.181,4.944,16.347,12.162l18.656,62.186
	C342.611,378.49,338.511,384,332.795,384z"/>
<path style="fill:#FFC36E;" d="M309.457,349.867c3.363,0,5.776-3.243,4.81-6.464l-7.067-23.555c-0.733-2.442-2.98-4.114-5.53-4.114
	h-91.34c-2.549,0-4.797,1.673-5.53,4.114l-7.067,23.555c-0.966,3.221,1.445,6.464,4.81,6.464H309.457z"/>
<path style="fill:#FFD782;" d="M332.795,213.333H179.206c-5.716,0-9.815-5.51-8.174-10.986l18.656-62.186
	c2.165-7.219,8.81-12.162,16.347-12.162h99.931c7.537,0,14.181,4.944,16.347,12.162l18.656,62.186
	C342.611,207.823,338.511,213.333,332.795,213.333z"/>
<path style="fill:#FFC36E;" d="M309.457,179.2c3.363,0,5.776-3.243,4.81-6.464l-7.067-23.555c-0.733-2.442-2.98-4.114-5.53-4.114
	h-91.34c-2.549,0-4.797,1.673-5.53,4.114l-7.067,23.555c-0.966,3.221,1.445,6.464,4.81,6.464H309.457z"/>
<path style="fill:#FFD782;" d="M503.462,384H349.872c-5.716,0-9.815-5.51-8.174-10.986l18.656-62.186
	c2.165-7.219,8.81-12.162,16.347-12.162h99.931c7.537,0,14.181,4.944,16.347,12.162l18.656,62.186
	C513.277,378.49,509.178,384,503.462,384z"/>
<path style="fill:#FFC36E;" d="M480.124,349.867c3.363,0,5.776-3.243,4.81-6.464l-7.067-23.555c-0.733-2.442-2.98-4.114-5.53-4.114
	h-91.34c-2.549,0-4.797,1.673-5.53,4.114l-7.067,23.555c-0.966,3.221,1.445,6.464,4.81,6.464H480.124z"/>
<path style="fill:#FFD782;" d="M162.128,384H8.539c-5.716,0-9.815-5.51-8.174-10.986l18.656-62.186
	c2.166-7.218,8.811-12.162,16.347-12.162h99.931c7.537,0,14.181,4.944,16.347,12.162l18.656,62.186
	C171.944,378.49,167.845,384,162.128,384z"/>
<path style="fill:#FFC36E;" d="M138.791,349.867c3.363,0,5.776-3.243,4.81-6.464l-7.067-23.555c-0.733-2.442-2.98-4.114-5.53-4.114
	h-91.34c-2.549,0-4.797,1.673-5.53,4.114l-7.067,23.555c-0.966,3.221,1.445,6.464,4.81,6.464H138.791z"/>
<path style="fill:#FFD782;" d="M418.128,298.667H264.539c-5.716,0-9.815-5.51-8.174-10.986l18.656-62.186
	c2.165-7.219,8.81-12.162,16.347-12.162h99.931c7.537,0,14.181,4.944,16.347,12.162l18.656,62.186
	C427.944,293.156,423.845,298.667,418.128,298.667z"/>
<path style="fill:#FFC36E;" d="M394.791,264.533c3.363,0,5.776-3.243,4.81-6.464l-7.067-23.555c-0.733-2.442-2.98-4.114-5.53-4.114
	h-91.34c-2.549,0-4.797,1.673-5.53,4.114l-7.067,23.555c-0.966,3.221,1.445,6.464,4.81,6.464H394.791z"/>
<path style="fill:#FFD782;" d="M247.462,298.667H93.872c-5.716,0-9.815-5.51-8.174-10.986l18.656-62.186
	c2.165-7.219,8.81-12.162,16.347-12.162h99.931c7.537,0,14.181,4.944,16.347,12.162l18.656,62.186
	C257.277,293.156,253.178,298.667,247.462,298.667z"/>
<path style="fill:#FFC36E;" d="M224.124,264.533c3.363,0,5.776-3.243,4.81-6.464l-7.067-23.555c-0.733-2.442-2.98-4.114-5.53-4.114
	h-91.34c-2.549,0-4.797,1.673-5.53,4.114l-7.067,23.555c-0.966,3.221,1.445,6.464,4.81,6.464H224.124z"/>
<g>
	<path style="fill:#FFFFFF;" d="M335.236,266.179c-14.729-3.358-26.323-14.953-29.681-29.682c-0.253-1.109-1.722-1.109-1.974,0
		c-3.358,14.729-14.953,26.323-29.681,29.682c-1.109,0.253-1.109,1.722,0,1.974c14.729,3.358,26.323,14.952,29.681,29.681
		c0.253,1.109,1.722,1.109,1.974,0c3.358-14.73,14.953-26.323,29.681-29.681C336.345,267.901,336.345,266.432,335.236,266.179z"/>
	<path style="fill:#FFFFFF;" d="M280.925,300.623c-8.965-2.322-16.025-9.381-18.347-18.347c-0.234-0.9-1.398-0.9-1.632,0
		c-2.322,8.965-9.381,16.025-18.347,18.347c-0.9,0.234-0.9,1.398,0,1.632c8.965,2.322,16.025,9.38,18.347,18.347
		c0.234,0.9,1.398,0.9,1.632,0c2.322-8.966,9.381-16.025,18.347-18.347C281.825,302.021,281.825,300.855,280.925,300.623z"/>
</g>
</svg>